<svg width="68" height="68" viewBox="0 0 68 68" fill="none" xmlns="http://www.w3.org/2000/svg">
<circle cx="34" cy="34" r="33.5" stroke="white" stroke-opacity="0.37"/>
<circle cx="34" cy="34" r="25" fill="white" fill-opacity="0.23"/>
<path d="M28 39.5526V27.2949C28 26.2842 28 25.7782 28.2134 25.4792C28.3997 25.2182 28.6869 25.0468 29.0057 25.0058C29.3708 24.9589 29.8186 25.1969 30.7129 25.6722L42.2448 31.801L42.249 31.8029C43.2373 32.3281 43.7317 32.5909 43.8939 32.9411C44.0354 33.2466 44.0354 33.5993 43.8939 33.9048C43.7315 34.2555 43.2359 34.5194 42.2448 35.0461L30.7129 41.1749C29.8179 41.6506 29.3709 41.8877 29.0057 41.8407C28.6869 41.7997 28.3997 41.6284 28.2134 41.3674C28 41.0683 28 40.5633 28 39.5526Z" fill="white" stroke="white" stroke-width="2" stroke-linecap="round" stroke-linejoin="round"/>
</svg>
